<?xml version="1.0" standalone="no"?>
<!DOCTYPE svg PUBLIC "-//W3C//DTD SVG 20010904//EN"
 "http://www.w3.org/TR/2001/REC-SVG-20010904/DTD/svg10.dtd">
<svg version="1.0" xmlns="http://www.w3.org/2000/svg"
 width="256.000000pt" height="256.000000pt" viewBox="0 0 256.000000 256.000000"
 preserveAspectRatio="xMidYMid meet">
<metadata>
Created by potrace 1.10, written by Peter Selinger 2001-2011
</metadata>
<g transform="translate(0.000000,256.000000) scale(0.050000,-0.050000)"
fill="#000000" stroke="none">
<path d="M1169 5089 c-133 -66 -164 -206 -120 -540 17 -130 31 -310 31 -400 0
-294 109 -509 258 -509 72 0 74 -6 25 -77 -167 -235 -356 -917 -297 -1069 19
-51 -26 -550 -64 -697 -43 -166 -127 -347 -234 -502 -312 -454 -9 -719 937
-819 l236 -25 58 -103 c251 -444 900 -432 1132 21 l40 80 230 25 c967 106
1265 364 951 821 -214 311 -269 514 -292 1075 -25 599 -104 911 -302 1192 -42
59 -33 78 37 78 136 0 245 228 245 513 0 91 14 271 31 401 44 335 14 471 -118
533 -177 84 -573 -60 -947 -345 l-184 -141 -95 42 c-108 48 -275 42 -358 -12
-63 -41 -57 -43 -154 47 -302 276 -868 499 -1046 411z m327 -241 c276 -92 664
-337 664 -419 0 -42 -10 -38 -149 61 -178 127 -475 263 -636 291 -106 18 -135
31 -135 58 0 77 49 79 256 9z m2380 -3 c6 -38 -3 -45 -51 -45 -149 0 -483
-148 -708 -314 -129 -95 -137 -98 -137 -59 0 14 68 77 151 140 362 269 727
406 745 278z m-1240 -386 c54 -20 139 -111 120 -130 -4 -4 -50 8 -102 27 -88
32 -100 32 -188 0 -109 -39 -119 -36 -82 24 47 81 152 113 252 79z m-853 -937
c-131 -316 -96 -378 165 -290 110 38 115 34 162 -108 39 -122 98 -165 177
-129 38 17 69 83 155 323 59 166 113 302 118 302 6 0 59 -136 118 -302 86
-240 117 -306 155 -323 79 -36 138 7 177 129 48 145 50 146 192 98 229 -77
264 -6 147 300 -86 226 -83 239 34 150 289 -221 404 -537 447 -1232 42 -687
103 -917 322 -1225 105 -148 131 -267 68 -316 -341 -262 -2159 -340 -2992
-129 -393 100 -439 178 -261 445 220 331 280 569 313 1232 35 695 200 1089
530 1268 63 35 60 18 -27 -193z m1086 -3165 c-169 -179 -516 -172 -638 14
l-32 49 364 0 364 0 -58 -63z"/>
<path d="M1536 2533 c-18 -18 -35 -130 -51 -335 -30 -392 -93 -644 -226 -909
-107 -213 -111 -258 -26 -290 200 -76 467 687 467 1334 0 205 -72 292 -164
200z"/>
</g>
</svg>
